<?xml version="1.0" standalone="no"?>
<!DOCTYPE svg PUBLIC "-//W3C//DTD SVG 20010904//EN"
 "http://www.w3.org/TR/2001/REC-SVG-20010904/DTD/svg10.dtd">
<svg version="1.0" xmlns="http://www.w3.org/2000/svg"
 width="911.000000pt" height="911.000000pt" viewBox="0 0 911.000000 911.000000"
 preserveAspectRatio="xMidYMid meet">
<metadata>
Created by potrace 1.11, written by Peter Selinger 2001-2013
</metadata>
<g transform="translate(0.000000,911.000000) scale(0.100000,-0.100000)"
fill="#000000" stroke="none">
<path d="M4298 9105 c-1 -1 -50 -6 -108 -10 -58 -3 -114 -8 -125 -10 -11 -2
-45 -7 -75 -10 -30 -3 -66 -7 -80 -10 -14 -2 -70 -11 -125 -20 -84 -14 -141
-26 -297 -60 -106 -23 -405 -113 -478 -143 -14 -6 -61 -24 -105 -41 -212 -79
-479 -209 -695 -339 -559 -337 -1060 -811 -1419 -1342 -306 -453 -509 -899
-641 -1405 -22 -82 -41 -161 -44 -175 -3 -14 -7 -36 -10 -50 -8 -36 -27 -140
-33 -175 -2 -16 -8 -55 -13 -85 -6 -30 -12 -77 -15 -105 -3 -27 -7 -63 -10
-80 -20 -153 -28 -695 -12 -855 5 -41 10 -97 13 -125 9 -97 45 -328 70 -443
131 -624 385 -1200 758 -1722 33 -47 66 -92 73 -100 7 -8 43 -53 80 -100 526
-660 1263 -1177 2070 -1454 99 -34 362 -110 413 -120 14 -3 66 -14 115 -25 50
-11 104 -22 120 -25 17 -3 71 -11 120 -20 50 -8 122 -18 160 -22 39 -3 79 -8
89 -10 133 -25 715 -25 921 0 17 2 57 7 90 10 33 4 85 11 115 16 30 5 69 11
85 13 269 41 620 138 915 254 504 198 985 496 1384 856 200 182 430 430 557
602 24 33 46 62 49 65 14 13 113 156 177 255 263 410 452 843 575 1314 22 85
42 167 44 181 2 14 9 45 14 70 5 25 12 56 14 70 2 14 9 52 15 85 10 62 15 97
27 200 3 33 8 67 9 75 27 148 26 731 -1 945 -3 22 -7 54 -9 70 -6 53 -16 129
-20 155 -3 14 -7 41 -10 60 -5 31 -50 254 -61 303 -2 9 -6 25 -8 36 -16 69
-95 325 -137 443 -468 1304 -1537 2345 -2849 2777 -253 83 -626 171 -790 186
-19 2 -51 6 -70 9 -35 5 -121 15 -195 22 -51 5 -632 14 -637 9z m562 -256 c58
-4 125 -10 150 -13 88 -10 155 -19 165 -21 6 -1 33 -5 60 -9 507 -77 1079
-285 1522 -554 52 -31 101 -62 111 -67 9 -6 53 -34 97 -64 374 -254 739 -599
1013 -959 75 -99 252 -356 252 -367 0 -1 19 -34 42 -71 79 -131 212 -399 268
-544 69 -175 107 -284 144 -415 40 -138 96 -376 110 -467 3 -21 9 -55 12 -75
3 -21 7 -49 10 -63 2 -14 6 -52 10 -85 3 -33 7 -65 9 -72 9 -28 20 -274 19
-448 0 -167 -8 -357 -19 -450 -2 -16 -6 -55 -10 -85 -46 -420 -195 -922 -396
-1335 -270 -556 -631 -1020 -1110 -1427 -239 -203 -564 -415 -861 -561 -142
-70 -448 -201 -448 -192 0 2 -19 -4 -42 -14 -104 -44 -517 -152 -668 -175 -19
-3 -53 -8 -75 -11 -22 -3 -47 -8 -55 -10 -8 -2 -46 -7 -85 -11 -38 -3 -79 -8
-90 -10 -117 -23 -834 -23 -874 0 -3 2 -40 6 -81 10 -41 3 -88 8 -105 11 -64
11 -91 15 -115 20 -14 3 -38 7 -55 10 -114 16 -399 89 -564 145 -524 175
-1000 443 -1427 801 -92 77 -366 344 -445 434 -316 361 -605 827 -763 1235
-21 52 -42 104 -47 115 -30 64 -148 459 -164 550 -2 17 -7 41 -10 55 -5 23
-20 97 -29 145 -2 11 -7 40 -11 65 -4 25 -9 53 -11 63 -2 10 -6 45 -9 78 -4
33 -8 68 -10 78 -29 153 -27 718 5 966 5 44 12 103 16 130 3 28 21 129 41 225
302 1503 1390 2735 2848 3225 155 52 389 117 469 129 21 4 41 8 45 10 3 3 25
7 47 10 22 4 49 8 59 10 11 2 40 7 65 11 25 4 53 9 62 10 9 2 48 7 85 10 37 4
70 9 73 10 3 2 55 6 115 10 61 4 111 8 113 10 7 6 443 2 542 -6z"/>
<path d="M4309 8726 c-2 -2 -47 -6 -99 -10 -52 -3 -111 -8 -130 -11 -19 -2
-55 -7 -80 -10 -25 -3 -70 -10 -100 -15 -30 -5 -71 -12 -90 -15 -234 -37 -595
-143 -844 -247 -313 -130 -549 -261 -851 -472 -152 -106 -321 -252 -501 -431
-332 -330 -566 -648 -774 -1050 -212 -412 -377 -937 -425 -1352 -3 -26 -7 -64
-10 -83 -28 -220 -28 -726 0 -950 8 -62 26 -192 30 -211 2 -9 6 -34 9 -55 4
-22 8 -46 11 -54 2 -8 6 -31 9 -50 12 -84 86 -353 138 -505 179 -519 465
-1011 827 -1420 159 -179 436 -434 621 -571 149 -109 398 -274 415 -274 3 0
24 -12 47 -27 55 -34 277 -145 381 -190 211 -90 518 -192 687 -228 8 -2 38 -9
65 -15 28 -6 61 -14 75 -16 14 -3 59 -11 100 -19 41 -8 116 -19 165 -25 50 -7
101 -13 114 -15 73 -12 263 -20 471 -20 209 0 280 3 450 21 45 4 180 23 211
29 9 2 32 6 50 9 28 4 188 37 249 51 507 113 1095 391 1535 725 71 55 146 113
165 130 19 17 60 52 90 78 63 53 293 282 359 357 343 387 625 863 807 1362 20
54 37 103 38 108 1 6 15 50 30 100 15 49 29 96 31 105 2 8 17 71 34 140 16 69
33 143 36 165 3 22 7 47 10 55 11 40 43 288 52 406 15 191 8 683 -12 782 -2
13 -7 51 -10 85 -3 34 -8 69 -10 77 -3 8 -7 33 -10 55 -2 22 -7 51 -10 65 -3
14 -9 48 -14 75 -76 403 -241 853 -450 1225 -284 507 -681 960 -1146 1309
-250 188 -604 393 -855 496 -36 14 -78 32 -95 40 -181 80 -599 196 -860 239
-16 3 -43 7 -60 10 -54 9 -189 26 -255 32 -74 7 -615 16 -621 10z m636 -139
c17 -3 71 -11 120 -17 129 -17 147 -19 175 -25 14 -3 39 -8 55 -10 105 -18
291 -63 417 -101 861 -259 1604 -789 2132 -1522 283 -393 501 -857 626 -1332
29 -112 72 -320 85 -410 3 -25 8 -56 10 -70 2 -14 6 -47 9 -75 3 -27 8 -70 11
-95 13 -110 20 -470 11 -595 -9 -121 -18 -227 -21 -243 -1 -9 -6 -42 -10 -72
-99 -782 -453 -1554 -990 -2155 -212 -238 -385 -392 -710 -632 -36 -27 -234
-152 -290 -183 -136 -77 -168 -95 -245 -131 -155 -75 -310 -139 -473 -194
-162 -56 -459 -133 -597 -155 -41 -7 -82 -14 -91 -15 -9 -2 -40 -6 -70 -10
-30 -3 -65 -8 -79 -10 -148 -22 -485 -32 -695 -20 -96 6 -327 30 -390 41 -466
80 -804 189 -1187 379 -84 42 -157 80 -163 84 -5 5 -37 23 -70 41 -170 94
-453 297 -627 452 -547 484 -943 1079 -1173 1762 -46 136 -108 364 -119 440
-4 21 -8 41 -10 45 -3 3 -7 27 -10 51 -4 25 -9 56 -11 70 -12 58 -14 70 -20
121 -3 30 -8 65 -10 79 -28 165 -34 631 -11 850 3 25 8 74 11 110 11 110 63
381 100 524 154 597 432 1133 834 1611 83 98 311 331 406 414 462 405 992 695
1576 861 130 37 300 76 414 95 62 10 86 14 182 25 54 7 123 15 153 20 61 8
697 6 745 -3z"/>
<path d="M2369 7252 l-26 -3 0 -95 0 -94 268 0 269 0 0 -1190 0 -1190 95 1 95
1 0 1189 0 1189 30 0 30 0 0 -627 c1 -346 1 -879 1 -1185 l0 -558 25 0 24 0 0
1185 0 1185 1740 0 1740 0 1 23 c3 54 0 159 -5 165 -6 5 -4239 10 -4287 4z"/>
<path d="M4449 6686 c-2 -2 -42 -6 -89 -9 -208 -12 -404 -108 -485 -237 -53
-84 -52 -73 -52 -947 l-1 -813 97 0 96 0 0 522 0 521 23 2 c14 1 22 -4 23 -14
1 -9 2 -239 4 -511 1 -272 3 -501 4 -507 0 -7 10 -13 20 -13 10 0 21 6 23 13
2 6 4 240 4 520 -1 335 2 507 9 508 5 1 181 2 391 3 l381 1 1 -485 c0 -267 1
-502 1 -522 l1 -38 94 1 94 0 1 812 c0 902 2 877 -66 970 -88 119 -256 200
-443 213 -41 3 -87 7 -101 9 -15 2 -28 3 -30 1z m216 -145 c103 -37 167 -89
206 -169 22 -45 23 -60 25 -289 l3 -243 -37 0 c-210 -3 -734 0 -740 4 -4 2 -7
125 -7 273 1 256 2 270 23 310 21 40 60 77 110 103 84 43 309 49 417 11z
m-587 -133 c-8 -21 -12 -128 -12 -300 l-1 -268 -28 0 -27 0 1 233 c2 238 6
265 46 330 29 46 36 47 21 5z"/>
<path d="M5376 6680 c-1 -3 -2 -453 -2 -1000 l1 -995 95 0 95 0 0 520 0 520
31 3 32 3 0 -493 c0 -271 1 -508 1 -526 1 -29 4 -33 24 -30 l22 3 0 517 c0
284 2 519 6 522 3 3 111 6 241 6 191 1 255 5 330 20 97 20 229 79 280 124 46
41 95 113 112 163 18 54 24 210 12 288 -28 177 -202 309 -466 351 -52 8 -810
12 -814 4z m248 -140 c3 -8 4 -164 4 -347 l-1 -331 -28 -4 c-16 -3 -30 -2 -30
1 -6 28 -3 678 2 686 12 16 48 13 53 -5z m576 -4 c125 -33 206 -101 236 -200
18 -63 17 -214 -3 -272 -33 -98 -142 -175 -277 -198 -24 -4 -296 -8 -446 -6
l-35 0 1 348 c1 191 2 347 3 347 0 0 103 0 229 -1 179 0 241 -4 292 -18z"/>
<path d="M2351 4450 c-5 -3 -8 -47 -8 -97 l0 -93 1839 0 c1012 0 1843 -2 1847
-4 4 -3 8 -535 9 -1183 0 -648 1 -1186 1 -1195 1 -16 13 -18 96 -18 l95 0 0
1200 0 1200 30 0 30 0 0 -1199 0 -1198 23 1 22 1 3 1197 2 1198 213 2 212 3 0
95 0 95 -2203 0 c-1212 0 -2207 -2 -2211 -5z"/>
<path d="M3248 3865 c-1 -1 -25 -5 -53 -8 -77 -9 -163 -34 -243 -72 -87 -41
-185 -134 -222 -210 l-25 -50 0 -660 c0 -657 0 -660 22 -707 65 -141 218 -241
429 -282 111 -22 342 -15 446 12 117 32 221 90 285 162 26 29 71 115 79 150 3
14 5 311 6 661 1 584 -1 640 -17 690 -48 147 -179 247 -383 294 -57 14 -313
30 -324 20z m202 -120 c75 -10 176 -51 227 -92 47 -38 87 -100 98 -152 10 -45
9 -1228 0 -1272 -12 -54 -40 -103 -84 -142 -85 -77 -191 -110 -351 -110 -175
0 -274 43 -321 140 l-23 48 -1 700 0 700 23 47 c39 79 115 122 236 134 33 3
62 7 63 8 3 3 82 -2 133 -9z m-490 -151 c-6 -15 -10 -296 -10 -730 0 -604 2
-710 15 -741 22 -52 -4 -27 -41 39 l-29 53 -2 634 c-1 675 -2 673 47 742 26
36 33 37 20 3z"/>
<path d="M4310 3862 l-45 -3 1 -822 c1 -771 2 -825 19 -867 48 -119 158 -211
315 -264 106 -35 155 -41 325 -40 120 1 166 5 230 23 190 51 313 148 357 283
7 22 11 298 12 861 1 731 -1 827 -14 828 -24 1 -112 1 -145 0 l-30 -1 -1 -817
c0 -800 -1 -819 -20 -863 -55 -121 -194 -196 -378 -203 -96 -4 -181 9 -240 37
-68 32 -99 62 -120 116 -17 42 -18 101 -18 888 l-1 842 -26 0 -26 0 1 -854 c2
-600 5 -860 13 -874 14 -26 14 -35 1 -27 -6 4 -22 30 -37 58 l-27 52 0 822 -1
823 -30 1 c-16 0 -39 1 -50 2 -11 1 -40 1 -65 -1z"/>
</g>
</svg>
